<svg id="svg" version="1.1" xmlns="http://www.w3.org/2000/svg" xmlns:xlink="http://www.w3.org/1999/xlink" width="400" height="225" viewBox="0, 0, 400,225"><g id="svgg"><path id="path0" d="M117.000 54.083 L 117.000 104.000 133.641 104.000 L 150.283 104.000 150.376 101.125 C 150.427 99.544,150.557 97.763,150.664 97.167 C 150.771 96.571,150.933 95.671,151.023 95.167 C 151.271 93.776,152.170 89.961,152.338 89.583 C 152.420 89.400,152.613 88.801,152.767 88.252 C 152.921 87.703,153.111 87.122,153.190 86.960 C 153.269 86.799,153.408 86.518,153.500 86.336 C 153.592 86.154,153.667 85.917,153.667 85.811 C 153.667 85.704,153.842 85.234,154.057 84.767 C 154.271 84.299,154.702 83.354,155.015 82.667 C 155.328 81.980,155.816 81.005,156.101 80.501 C 156.385 79.996,156.760 79.321,156.934 79.000 C 157.108 78.679,157.306 78.392,157.375 78.361 C 157.444 78.331,157.500 78.199,157.500 78.069 C 157.500 77.940,157.575 77.833,157.667 77.833 C 157.758 77.833,157.833 77.726,157.833 77.595 C 157.833 77.464,157.936 77.254,158.062 77.129 C 158.187 77.003,158.408 76.679,158.552 76.409 C 158.696 76.138,159.006 75.699,159.240 75.432 C 159.475 75.166,159.667 74.899,159.667 74.839 C 159.667 74.779,159.799 74.584,159.960 74.406 C 160.121 74.229,160.396 73.858,160.570 73.583 C 161.285 72.458,165.893 67.606,167.771 66.000 C 168.178 65.652,169.681 64.485,170.238 64.083 C 170.493 63.900,171.050 63.481,171.476 63.151 C 173.462 61.616,178.502 58.898,181.667 57.655 C 185.457 56.166,189.241 55.173,193.000 54.680 C 196.211 54.259,197.454 54.167,199.845 54.172 C 202.213 54.177,207.031 54.609,208.833 54.978 C 209.246 55.063,210.033 55.220,210.583 55.329 C 212.916 55.788,216.793 57.027,219.417 58.153 C 220.560 58.644,224.426 60.593,224.472 60.702 C 224.503 60.774,224.634 60.833,224.764 60.833 C 224.894 60.833,225.000 60.908,225.000 61.000 C 225.000 61.092,225.087 61.167,225.194 61.167 C 225.383 61.167,227.002 62.134,227.167 62.346 C 227.213 62.405,227.475 62.572,227.750 62.717 C 228.025 62.862,228.468 63.172,228.734 63.407 C 229.001 63.641,229.268 63.833,229.328 63.833 C 229.388 63.833,229.585 63.971,229.766 64.139 C 229.946 64.308,230.392 64.664,230.757 64.931 C 232.930 66.522,237.244 70.823,238.734 72.884 C 239.012 73.269,239.281 73.621,239.332 73.667 C 239.523 73.838,241.128 76.104,241.427 76.625 C 241.599 76.923,241.789 77.167,241.850 77.167 C 241.911 77.167,242.007 77.298,242.062 77.458 C 242.118 77.619,242.392 78.125,242.670 78.583 C 242.949 79.042,243.226 79.529,243.285 79.667 C 243.344 79.804,243.435 79.954,243.488 80.000 C 243.652 80.143,245.500 83.945,245.500 84.139 C 245.500 84.240,245.635 84.569,245.801 84.870 C 245.966 85.171,246.234 85.792,246.397 86.250 C 246.559 86.708,246.761 87.233,246.845 87.417 C 247.136 88.054,248.316 92.425,248.578 93.833 C 248.722 94.612,248.911 95.625,248.997 96.083 C 249.307 97.737,249.492 99.458,249.601 101.708 L 249.712 104.000 266.356 104.000 L 283.000 104.000 283.000 54.083 L 283.000 4.167 266.333 4.167 L 249.667 4.167 249.667 12.333 L 249.667 20.500 233.167 20.500 L 216.667 20.500 216.667 12.333 L 216.667 4.167 200.000 4.167 L 183.333 4.167 183.333 12.333 L 183.333 20.500 166.833 20.500 L 150.333 20.500 150.333 12.333 L 150.333 4.167 133.667 4.167 L 117.000 4.167 117.000 54.083 M117.000 137.667 L 117.000 154.333 133.583 154.333 L 150.167 154.333 150.167 162.583 L 150.167 170.833 133.583 170.833 L 117.000 170.833 117.000 179.167 L 117.000 187.500 133.583 187.500 L 150.167 187.500 150.167 195.833 L 150.167 204.167 133.583 204.167 L 117.000 204.167 117.000 212.500 L 117.000 220.833 133.667 220.833 L 150.333 220.833 150.333 212.500 L 150.333 204.167 166.833 204.167 L 183.333 204.167 183.333 212.500 L 183.333 220.833 200.000 220.833 L 216.667 220.833 216.667 212.500 L 216.667 204.167 233.167 204.167 L 249.667 204.167 249.667 212.500 L 249.667 220.833 266.333 220.833 L 283.000 220.833 283.000 212.500 L 283.000 204.167 266.417 204.167 L 249.833 204.167 249.833 195.833 L 249.833 187.500 266.417 187.500 L 283.000 187.500 283.000 179.167 L 283.000 170.833 266.417 170.833 L 249.833 170.833 249.833 162.583 L 249.833 154.333 266.417 154.333 L 283.000 154.333 283.000 137.667 L 283.000 121.000 266.333 121.000 L 249.667 121.000 249.667 137.583 L 249.667 154.167 200.000 154.167 L 150.333 154.167 150.333 137.583 L 150.333 121.000 133.667 121.000 L 117.000 121.000 117.000 137.667 M249.667 179.250 L 249.667 187.500 200.000 187.500 L 150.333 187.500 150.333 179.250 L 150.333 171.000 200.000 171.000 L 249.667 171.000 249.667 179.250 " stroke="none" fill="#ac945c" fill-rule="evenodd"></path><path id="path1" d="" stroke="none" fill="#b0945c" fill-rule="evenodd"></path><path id="path2" d="" stroke="none" fill="#b0945c" fill-rule="evenodd"></path><path id="path3" d="" stroke="none" fill="#b0945c" fill-rule="evenodd"></path><path id="path4" d="" stroke="none" fill="#b0945c" fill-rule="evenodd"></path></g></svg>